<svg width="62" height="62" viewBox="0 0 62 62" fill="none" xmlns="http://www.w3.org/2000/svg">
<rect x="1" y="1" width="60" height="60" rx="10" fill="white"/>
<path d="M37.2184 11.8006C38.2824 10.8803 40.004 10.8876 41.0601 11.8169L49.1714 18.9542C50.2276 19.8835 50.2212 21.3855 49.1572 22.3058L40.9857 29.374C39.9217 30.2943 38.2001 30.287 37.1439 29.3577C36.0878 28.4284 36.0942 26.9264 37.1582 26.0061L40.6736 22.9579L22.805 22.8821C19.8113 22.8694 17.3684 24.9825 17.3573 27.5942L17.3473 29.9618C17.3417 31.2714 16.1245 32.3242 14.6234 32.3179C13.1223 32.3115 11.9141 31.2483 11.9197 29.9388L11.9297 27.5712C11.9519 22.3403 16.8293 18.1215 22.8251 18.1469L40.6937 18.2227L37.2042 15.1448C36.1481 14.2155 36.1545 12.7136 37.2185 11.7932L37.2184 11.8006Z" fill="#2B2B2B"/>
<path d="M24.6115 50.3602C23.5475 51.2806 21.826 51.2733 20.7698 50.3439L12.6585 43.2067C11.6024 42.2773 11.6088 40.7754 12.6728 39.8551L20.8443 32.7869C21.9083 31.8665 23.6299 31.8738 24.686 32.8032C25.7422 33.7325 25.7358 35.2344 24.6718 36.1548L21.1563 39.203L39.025 39.2788C42.0186 39.2915 44.4616 37.1784 44.4727 34.5666L44.4827 32.1991C44.4883 30.8895 45.7055 29.8366 47.2066 29.843C48.7076 29.8494 49.9159 30.9125 49.9103 32.2221L49.9003 34.5897C49.8781 39.8205 45.0007 44.0394 39.0049 44.0139L21.1362 43.9381L24.6257 47.016C25.6819 47.9454 25.6755 49.4473 24.6115 50.3676L24.6115 50.3602Z" fill="#2B2B2B"/>
</svg>
