<svg width="150" height="30" viewBox="0 0 150 30" fill="none" xmlns="http://www.w3.org/2000/svg">
<path d="M14.602 2.99389C15.2157 2.41876 16.2124 2.41876 16.8261 2.99389L21.5396 7.41093C22.1534 7.98606 22.1534 8.92008 21.5396 9.49522L16.8261 13.9123C16.2124 14.4874 15.2157 14.4874 14.602 13.9123C13.9882 13.3371 13.9882 12.4031 14.602 11.828L16.6297 9.92312H6.28464C4.55145 9.92312 3.14232 11.2436 3.14232 12.8678V14.3402C3.14232 15.1545 2.44021 15.8125 1.57116 15.8125C0.702112 15.8125 0 15.1545 0 14.3402V12.8678C0 9.61485 2.81336 6.97843 6.28464 6.97843H16.6297L14.602 5.07358C13.9882 4.49845 13.9882 3.56443 14.602 2.98929V2.99389Z" fill="#000813"/>
<path d="M7.39802 27.0061C6.78428 27.5812 5.78758 27.5812 5.17385 27.0061L0.460366 22.5891C-0.153369 22.0139 -0.153369 21.0799 0.460366 20.5048L5.17385 16.0877C5.78758 15.5126 6.78429 15.5126 7.39802 16.0878C8.01175 16.6629 8.01175 17.5969 7.39802 18.172L5.37024 20.0769L15.7153 20.0769C17.4485 20.0769 18.8577 18.7564 18.8577 17.1322L18.8577 15.6599C18.8577 14.8455 19.5598 14.1875 20.4288 14.1875C21.2979 14.1875 22 14.8455 22 15.6599L22 17.1322C22 20.3852 19.1866 23.0216 15.7153 23.0216L5.37024 23.0216L7.39802 24.9264C8.01175 25.5016 8.01175 26.4356 7.39802 27.0107L7.39802 27.0061Z" fill="#000813"/>
<path d="M39.9712 24.3296C38.5714 24.3296 37.3507 24.1261 36.3091 23.7192C35.2755 23.3042 34.4617 22.7101 33.8677 21.937C33.2817 21.1639 32.9521 20.2402 32.8789 19.166L32.8667 18.9707H36.3579L36.3823 19.105C36.4556 19.5526 36.6549 19.9432 36.9805 20.2769C37.3141 20.6105 37.7414 20.8709 38.2622 21.0581C38.7912 21.2371 39.3893 21.3267 40.0566 21.3267C40.7402 21.3267 41.3302 21.2331 41.8267 21.0459C42.3231 20.8587 42.7056 20.5983 42.9741 20.2646C43.2427 19.9229 43.3769 19.5282 43.3769 19.0806V19.0684C43.3769 18.4743 43.1409 18.0104 42.6689 17.6768C42.2051 17.335 41.4279 17.0501 40.3374 16.8223L38.4697 16.4561C36.7282 16.1061 35.418 15.5161 34.5391 14.686C33.6683 13.8478 33.2329 12.7614 33.2329 11.4268V11.4146C33.241 10.3403 33.5299 9.40446 34.0996 8.60693C34.6774 7.80127 35.4709 7.17464 36.48 6.72705C37.4972 6.27946 38.6528 6.05566 39.9468 6.05566C41.314 6.05566 42.4899 6.27132 43.4746 6.70264C44.4593 7.12581 45.2283 7.72396 45.7817 8.49707C46.3433 9.27018 46.6525 10.1694 46.7095 11.1948L46.7217 11.4023H43.2427L43.2305 11.2559C43.1654 10.8001 42.9904 10.4095 42.7056 10.084C42.4207 9.75846 42.0423 9.50618 41.5703 9.32715C41.1064 9.14811 40.5653 9.05859 39.9468 9.05859C39.3283 9.05859 38.7912 9.14811 38.3354 9.32715C37.8797 9.50618 37.5298 9.75846 37.2856 10.084C37.0415 10.4014 36.9194 10.7716 36.9194 11.1948V11.207C36.9194 11.7604 37.1554 12.2121 37.6274 12.562C38.0994 12.9038 38.8441 13.1764 39.8613 13.3799L41.7168 13.7583C42.9538 14.0024 43.967 14.3402 44.7563 14.7715C45.5457 15.2028 46.1276 15.748 46.5019 16.4072C46.8763 17.0583 47.0635 17.8436 47.0635 18.7632V18.7754C47.0635 19.9066 46.7786 20.8913 46.209 21.7295C45.6475 22.5596 44.8377 23.2025 43.7798 23.6582C42.7218 24.1058 41.4523 24.3296 39.9712 24.3296ZM51.7388 24L48.2353 10.8652H51.8242L53.814 20.582H53.9116L56.2309 10.8652H59.6367L61.9805 20.582H62.0781L64.0679 10.8652H67.5835L64.1045 24H60.3081L57.9277 14.7349H57.8423L55.4863 24H51.7388ZM72.5762 24.2075C71.7135 24.2075 70.9486 24.0407 70.2812 23.707C69.6221 23.3652 69.1053 22.8973 68.7309 22.3032C68.3647 21.701 68.1816 21.0133 68.1816 20.2402V20.228C68.1816 19.4224 68.381 18.7388 68.7798 18.1772C69.1785 17.6076 69.7563 17.16 70.5132 16.8345C71.2781 16.509 72.2059 16.3096 73.2964 16.2363L78.3867 15.9189V18.1284L73.8335 18.4336C73.1336 18.4743 72.6006 18.637 72.2344 18.9219C71.8763 19.1986 71.6973 19.5688 71.6973 20.0327V20.0571C71.6973 20.5373 71.8844 20.9157 72.2588 21.1924C72.6331 21.4691 73.1255 21.6074 73.7358 21.6074C74.2729 21.6074 74.749 21.5057 75.1641 21.3022C75.5872 21.0907 75.9209 20.8018 76.165 20.4355C76.4092 20.0693 76.5312 19.6584 76.5312 19.2026V15.1987C76.5312 14.6128 76.3441 14.153 75.9697 13.8193C75.6035 13.4857 75.0664 13.3188 74.3584 13.3188C73.6992 13.3188 73.1702 13.4531 72.7715 13.7217C72.3808 13.9902 72.1367 14.3361 72.0391 14.7593L72.0268 14.8569H68.7554L68.7676 14.7227C68.8408 13.9089 69.1134 13.1927 69.5854 12.5742C70.0574 11.9557 70.7085 11.4715 71.5386 11.1216C72.3768 10.7716 73.3696 10.5967 74.5171 10.5967C75.6564 10.5967 76.6411 10.7798 77.4712 11.146C78.3013 11.5041 78.9442 12.0127 79.3999 12.6719C79.8556 13.3311 80.0835 14.1082 80.0835 15.0034V24H76.5312V22.0713H76.4336C76.1894 22.5107 75.8761 22.8932 75.4936 23.2188C75.1112 23.5361 74.6717 23.7803 74.1753 23.9512C73.687 24.1221 73.154 24.2075 72.5762 24.2075ZM82.5371 28.2969V10.8652H86.1016V13.1235H86.1992C86.4352 12.6027 86.7445 12.1551 87.1269 11.7808C87.5176 11.3983 87.9733 11.1094 88.4941 10.9141C89.015 10.7106 89.5846 10.6089 90.2031 10.6089C91.3099 10.6089 92.262 10.8815 93.0596 11.4268C93.8652 11.9639 94.4837 12.7451 94.915 13.7705C95.3463 14.7878 95.562 16.0044 95.562 17.4204V17.4448C95.562 18.8608 95.3463 20.0775 94.915 21.0947C94.4837 22.112 93.8693 22.8932 93.0718 23.4385C92.2824 23.9837 91.3384 24.2563 90.2397 24.2563C89.6212 24.2563 89.0475 24.1587 88.5185 23.9634C87.9896 23.7599 87.5298 23.4751 87.1392 23.1089C86.7485 22.7345 86.4352 22.291 86.1992 21.7783H86.1016V28.2969H82.5371ZM89.019 21.3022C89.6131 21.3022 90.1299 21.1476 90.5693 20.8384C91.0088 20.521 91.3465 20.0734 91.5825 19.4956C91.8185 18.9178 91.9365 18.2342 91.9365 17.4448V17.4204C91.9365 16.6229 91.8144 15.9352 91.5703 15.3574C91.3343 14.7796 90.9966 14.3361 90.5571 14.0269C90.1258 13.7176 89.6131 13.563 89.019 13.563C88.4331 13.563 87.9204 13.7217 87.4809 14.0391C87.0415 14.3483 86.6956 14.7918 86.4433 15.3696C86.1992 15.9474 86.0771 16.6351 86.0771 17.4326V17.4448C86.0771 18.2342 86.1992 18.9178 86.4433 19.4956C86.6956 20.0734 87.0415 20.521 87.4809 20.8384C87.9204 21.1476 88.4331 21.3022 89.019 21.3022ZM105.645 24.3296C103.936 24.3296 102.451 23.9634 101.189 23.231C99.9362 22.4904 98.9678 21.4406 98.2842 20.0815C97.6087 18.7144 97.271 17.0827 97.271 15.1865V15.1743C97.271 13.2782 97.6128 11.6506 98.2964 10.2915C98.98 8.93245 99.9484 7.88672 101.202 7.1543C102.455 6.42188 103.936 6.05566 105.645 6.05566C107.069 6.05566 108.335 6.33236 109.441 6.88574C110.556 7.43913 111.451 8.20003 112.127 9.16846C112.811 10.1287 113.209 11.2355 113.323 12.4888L113.335 12.6108H109.747L109.698 12.4155C109.559 11.7645 109.311 11.1989 108.953 10.7188C108.595 10.2305 108.135 9.85205 107.574 9.5835C107.02 9.31494 106.377 9.18066 105.645 9.18066C104.709 9.18066 103.895 9.4248 103.204 9.91309C102.512 10.3932 101.979 11.0809 101.604 11.9761C101.23 12.8713 101.043 13.9373 101.043 15.1743V15.1865C101.043 16.4235 101.23 17.4937 101.604 18.397C101.979 19.2922 102.512 19.9839 103.204 20.4722C103.903 20.9604 104.721 21.2046 105.657 21.2046C106.365 21.2046 106.996 21.0744 107.549 20.814C108.103 20.5535 108.567 20.1792 108.941 19.6909C109.315 19.2026 109.58 18.6126 109.734 17.9209L109.759 17.7988H113.348L113.335 17.9331C113.222 19.1782 112.823 20.285 112.139 21.2534C111.456 22.2137 110.556 22.9665 109.441 23.5117C108.335 24.057 107.069 24.3296 105.645 24.3296ZM121.465 24.2686C120.139 24.2686 118.987 23.9959 118.011 23.4507C117.034 22.9054 116.281 22.1242 115.752 21.1069C115.223 20.0815 114.959 18.8608 114.959 17.4448V17.4204C114.959 16.0044 115.228 14.7878 115.765 13.7705C116.302 12.7451 117.059 11.9598 118.035 11.4146C119.012 10.8693 120.155 10.5967 121.465 10.5967C122.784 10.5967 123.927 10.8693 124.895 11.4146C125.872 11.9598 126.629 12.741 127.166 13.7583C127.703 14.7756 127.972 15.9963 127.972 17.4204V17.4448C127.972 18.869 127.703 20.0938 127.166 21.1191C126.637 22.1364 125.888 22.9176 124.92 23.4629C123.951 24 122.8 24.2686 121.465 24.2686ZM121.478 21.4731C122.063 21.4731 122.568 21.3185 122.991 21.0093C123.423 20.6919 123.752 20.2321 123.98 19.6299C124.216 19.0277 124.334 18.2993 124.334 17.4448V17.4204C124.334 16.5659 124.216 15.8416 123.98 15.2476C123.744 14.6453 123.41 14.1855 122.979 13.8682C122.548 13.5508 122.043 13.3921 121.465 13.3921C120.888 13.3921 120.383 13.5508 119.952 13.8682C119.52 14.1855 119.187 14.6453 118.951 15.2476C118.715 15.8416 118.597 16.5659 118.597 17.4204V17.4448C118.597 18.2993 118.711 19.0277 118.938 19.6299C119.174 20.2321 119.508 20.6919 119.939 21.0093C120.371 21.3185 120.883 21.4731 121.478 21.4731ZM130.01 24V10.8652H133.575V24H130.01ZM131.792 9.13184C131.255 9.13184 130.8 8.94873 130.425 8.58252C130.059 8.21631 129.876 7.77686 129.876 7.26416C129.876 6.74333 130.059 6.2998 130.425 5.93359C130.8 5.56738 131.255 5.38428 131.792 5.38428C132.33 5.38428 132.781 5.56738 133.147 5.93359C133.522 6.2998 133.709 6.74333 133.709 7.26416C133.709 7.77686 133.522 8.21631 133.147 8.58252C132.781 8.94873 132.33 9.13184 131.792 9.13184ZM136.126 24V10.8652H139.69V13.0137H139.788C140.122 12.265 140.618 11.675 141.277 11.2437C141.945 10.8123 142.771 10.5967 143.755 10.5967C145.204 10.5967 146.319 11.0321 147.1 11.9028C147.889 12.7736 148.284 13.978 148.284 15.5161V24H144.72V16.2729C144.72 15.4022 144.516 14.7308 144.109 14.2588C143.711 13.7868 143.108 13.5508 142.303 13.5508C141.774 13.5508 141.31 13.6729 140.911 13.917C140.52 14.1611 140.219 14.4989 140.008 14.9302C139.796 15.3615 139.69 15.866 139.69 16.4438V24H136.126Z" fill="#000813"/>
</svg>
