<svg width="16" height="18" viewBox="0 0 16 18" fill="none" xmlns="http://www.w3.org/2000/svg">
<path fill-rule="evenodd" clip-rule="evenodd" d="M15.8047 3.96967C16.0651 4.26256 16.0651 4.73744 15.8047 5.03033L9.4714 12.1553C9.21106 12.4482 8.78895 12.4482 8.5286 12.1553L5.66667 8.93566L1.13807 14.0303C0.877722 14.3232 0.455612 14.3232 0.195262 14.0303C-0.0650874 13.7374 -0.0650874 13.2626 0.195262 12.9697L5.19526 7.34467C5.45561 7.05178 5.87772 7.05178 6.13807 7.34467L9 10.5643L14.8619 3.96967C15.1223 3.67678 15.5444 3.67678 15.8047 3.96967Z" fill="#02B341"/>
<path fill-rule="evenodd" clip-rule="evenodd" d="M10.6667 4.5C10.6667 4.08579 10.9651 3.75 11.3333 3.75H15.3333C15.7015 3.75 16 4.08579 16 4.5V9C16 9.41421 15.7015 9.75 15.3333 9.75C14.9651 9.75 14.6667 9.41421 14.6667 9V5.25H11.3333C10.9651 5.25 10.6667 4.91421 10.6667 4.5Z" fill="#02B341"/>
</svg>
